<svg width="16" height="16" viewBox="0 0 16 16" fill="none" xmlns="http://www.w3.org/2000/svg">
<path d="M10.6665 5.33331C11.7274 5.33331 12.7448 5.75474 13.4949 6.50489C14.2451 7.25503 14.6665 8.27245 14.6665 9.33331V14H11.9998V9.33331C11.9998 8.97969 11.8594 8.64055 11.6093 8.3905C11.3593 8.14046 11.0201 7.99998 10.6665 7.99998C10.3129 7.99998 9.97374 8.14046 9.7237 8.3905C9.47365 8.64055 9.33317 8.97969 9.33317 9.33331V14H6.6665V9.33331C6.6665 8.27245 7.08793 7.25503 7.83808 6.50489C8.58822 5.75474 9.60564 5.33331 10.6665 5.33331Z" stroke="white" stroke-linecap="round" stroke-linejoin="round"/>
<path d="M4.00016 6H1.3335V14H4.00016V6Z" stroke="white" stroke-linecap="round" stroke-linejoin="round"/>
<path d="M2.66683 3.99998C3.40321 3.99998 4.00016 3.40303 4.00016 2.66665C4.00016 1.93027 3.40321 1.33331 2.66683 1.33331C1.93045 1.33331 1.3335 1.93027 1.3335 2.66665C1.3335 3.40303 1.93045 3.99998 2.66683 3.99998Z" stroke="white" stroke-linecap="round" stroke-linejoin="round"/>
</svg>
